<?xml version="1.0" encoding="UTF-8" standalone="no"?>
<!-- Created with Inkscape (http://www.inkscape.org/) -->

<svg
   width="512"
   height="512"
   viewBox="0 0 512 512"
   version="1.1"
   id="svg1"
   xml:space="preserve"
   inkscape:version="1.3 (0e150ed6c4, 2023-07-21)"
   sodipodi:docname="Partner Vault.svg"
   xmlns:inkscape="http://www.inkscape.org/namespaces/inkscape"
   xmlns:sodipodi="http://sodipodi.sourceforge.net/DTD/sodipodi-0.dtd"
   xmlns:xlink="http://www.w3.org/1999/xlink"
   xmlns="http://www.w3.org/2000/svg"
   xmlns:svg="http://www.w3.org/2000/svg"><sodipodi:namedview
     id="namedview1"
     pagecolor="#ffffff"
     bordercolor="#000000"
     borderopacity="0.25"
     inkscape:showpageshadow="2"
     inkscape:pageopacity="0.0"
     inkscape:pagecheckerboard="0"
     inkscape:deskcolor="#d1d1d1"
     inkscape:document-units="px"
     inkscape:zoom="0.38916016"
     inkscape:cx="346.90087"
     inkscape:cy="226.12798"
     inkscape:window-width="1523"
     inkscape:window-height="1032"
     inkscape:window-x="306"
     inkscape:window-y="0"
     inkscape:window-maximized="0"
     inkscape:current-layer="layer1" /><defs
     id="defs1"><inkscape:path-effect
       effect="fillet_chamfer"
       id="path-effect14"
       is_visible="true"
       lpeversion="1"
       nodesatellites_param="F,0,0,1,0,0,0,1 @ F,0,0,1,0,0,0,1 @ F,0,0,1,0,10.030113,0,1 @ F,0,1,1,0,10.030113,0,1 @ F,0,0,1,0,0,0,1 @ F,0,0,1,0,0,0,1 @ F,0,1,1,0,10.030113,0,1 @ F,0,1,1,0,10.030113,0,1 | F,0,1,1,0,10.030113,0,1 @ F,0,1,1,0,10.030113,0,1 @ F,0,0,1,0,0,0,1 @ F,0,0,1,0,0,0,1 @ F,0,1,1,0,10.030113,0,1 @ F,0,1,1,0,10.030113,0,1 @ F,0,0,1,0,0,0,1 @ F,0,0,1,0,0,0,1 | F,0,1,1,0,10.030113,0,1 @ F,0,0,1,0,0,0,1 @ F,0,0,1,0,0,0,1 @ F,0,1,1,0,10.030113,0,1 @ F,0,1,1,0,10.030113,0,1 @ F,0,0,1,0,0,0,1 @ F,0,0,1,0,0,0,1 @ F,0,1,1,0,10.030113,0,1 | F,0,1,1,0,10.030113,0,1 @ F,0,0,1,0,0,0,1 @ F,0,0,1,0,0,0,1 @ F,0,1,1,0,10.030113,0,1 @ F,0,1,1,0,10.030113,0,1 @ F,0,0,1,0,0,0,1 @ F,0,0,1,0,0,0,1 @ F,0,1,1,0,10.030113,0,1"
       radius="0"
       unit="px"
       method="auto"
       mode="F"
       chamfer_steps="1"
       flexible="false"
       use_knot_distance="true"
       apply_no_radius="true"
       apply_with_radius="true"
       only_selected="false"
       hide_knots="false" /><linearGradient
       id="linearGradient4"
       inkscape:collect="always"><stop
         style="stop-color:#035172;stop-opacity:1;"
         offset="0"
         id="stop4" /><stop
         style="stop-color:#02233c;stop-opacity:1;"
         offset="1"
         id="stop5" /></linearGradient><inkscape:path-effect
       effect="fillet_chamfer"
       id="path-effect4"
       is_visible="true"
       lpeversion="1"
       nodesatellites_param="F,0,0,1,0,0,0,1 @ F,0,0,1,0,0,0,1 @ F,0,0,1,0,0,0,1 @ F,0,0,1,0,0,0,1"
       radius="0"
       unit="px"
       method="auto"
       mode="F"
       chamfer_steps="1"
       flexible="false"
       use_knot_distance="true"
       apply_no_radius="true"
       apply_with_radius="true"
       only_selected="false"
       hide_knots="false" /><linearGradient
       inkscape:collect="always"
       xlink:href="#linearGradient4"
       id="linearGradient5"
       x1="0"
       y1="256"
       x2="512"
       y2="256"
       gradientUnits="userSpaceOnUse"
       gradientTransform="translate(0,-512)" /></defs><g
     inkscape:label="Layer 1"
     inkscape:groupmode="layer"
     id="layer1"><rect
       style="fill:url(#linearGradient5);fill-opacity:1;stroke-width:3.78;stroke-dasharray:none"
       id="rect4"
       width="512"
       height="512"
       x="0"
       y="-512"
       ry="104.34418"
       transform="rotate(90)" /><path
       id="rect4-8"
       style="color:#000000;fill:#ffffff;-inkscape-stroke:none"
       d="m 29.458984,-127.71875 c 0,54.26349 43.996276,98.259766 98.259766,98.259766 h 18.25114 A 10.030113,10.030113 135 0 0 156,-39.489097 10.000045,10.000045 44.827466 0 0 145.96989,-49.458984 h -18.25114 c -43.529465,0 -78.259766,-34.730301 -78.259766,-78.259766 v -18.25114 A 10.030113,10.030113 45 0 0 39.428871,-156 10.000045,10.000045 134.82747 0 0 29.458984,-145.96989 Z M 39.489097,-356 a 10.000045,10.000045 134.82747 0 0 9.969887,-10.03011 v -18.25114 c 0,-43.52947 34.730301,-78.25977 78.259766,-78.25977 h 18.25114 A 10.030113,10.030113 135 0 0 156,-472.57113 a 10.000045,10.000045 44.827466 0 0 -10.03011,-9.96989 h -18.25114 c -54.26349,0 -98.259766,43.99627 -98.259766,98.25977 v 18.25114 A 10.030113,10.030113 45 0 0 39.489097,-356 Z M 366.03011,-29.458984 h 18.25114 c 54.2635,0 98.25977,-43.996276 98.25977,-98.259766 v -18.25114 A 10.030113,10.030113 45 0 0 472.51091,-156 a 10.000045,10.000045 134.82747 0 0 -9.96989,10.03011 l 0,18.25114 c 0,43.529465 -34.7303,78.259766 -78.25977,78.259766 H 366.03011 A 10.030113,10.030113 135 0 0 356,-39.428871 a 10.000045,10.000045 44.827466 0 0 10.03011,9.969887 z m 0,-433.082036 18.25114,0 c 43.52947,0 78.25977,34.7303 78.25977,78.25977 v 18.25114 A 10.030113,10.030113 45 0 0 472.57113,-356 a 10.000045,10.000045 134.82747 0 0 9.96989,-10.03011 v -18.25114 c 0,-54.2635 -43.99627,-98.25977 -98.25977,-98.25977 H 366.03011 A 10.030113,10.030113 135 0 0 356,-472.51091 a 10.000045,10.000045 44.827466 0 0 10.03011,9.96989 z"
       transform="rotate(90)"
       sodipodi:nodetypes="ssccssccsccssccssccssccsscccssccsscc"
       inkscape:path-effect="#path-effect14"
       inkscape:original-d="m 29.458984,-127.71875 c 0,54.26349 43.996276,98.259766 98.259766,98.259766 9.42708,0 18.85417,0 28.28125,0 0,-6.666667 0,-13.333333 0,-20 -9.42708,0 -18.85417,0 -28.28125,0 -43.529465,0 -78.259766,-34.730301 -78.259766,-78.259766 0,-9.42708 0,-18.85417 0,-28.28125 -6.666667,0 -13.333333,0 -20,0 0,9.42708 0,18.85417 0,28.28125 z m 0,-228.28125 c 6.666667,0 13.333333,0 20,0 0,-9.42708 0,-18.85417 0,-28.28125 0,-43.52947 34.730301,-78.25977 78.259766,-78.25977 9.42708,0 18.85417,0 28.28125,0 0,-6.66667 0,-13.33333 0,-20 -9.42708,0 -18.85417,0 -28.28125,0 -54.26349,0 -98.259766,43.99627 -98.259766,98.25977 0,9.42708 0,18.85417 0,28.28125 z M 356,-29.458984 c 9.42708,0 18.85417,0 28.28125,0 54.2635,0 98.25977,-43.996276 98.25977,-98.259766 0,-9.42708 0,-18.85417 0,-28.28125 -6.66667,0 -13.33333,0 -20,0 0,9.42708 0,18.85417 0,28.28125 0,43.529465 -34.7303,78.259766 -78.25977,78.259766 -9.42708,0 -18.85417,0 -28.28125,0 0,6.666667 0,13.333333 0,20 z m 0,-433.082036 c 9.42708,0 18.85417,0 28.28125,0 43.52947,0 78.25977,34.7303 78.25977,78.25977 0,9.42708 0,18.85417 0,28.28125 6.66667,0 13.33333,0 20,0 0,-9.42708 0,-18.85417 0,-28.28125 0,-54.2635 -43.99627,-98.25977 -98.25977,-98.25977 -9.42708,0 -18.85417,0 -28.28125,0 0,6.66667 0,13.33333 0,20 z" /><path
       style="fill:#03233c;fill-opacity:1;stroke:#f8f8f8;stroke-width:20;stroke-linecap:round;stroke-dasharray:none;stroke-opacity:1"
       d="M 55.124043,256 H 456.87596"
       id="path5" /><circle
       style="fill:#023b58;fill-opacity:1;stroke:#f8f8f8;stroke-width:20;stroke-linecap:round;stroke-dasharray:none;stroke-opacity:1"
       id="path6"
       cx="256"
       cy="256"
       r="45" /><path
       id="path14"
       style="color:#000000;fill:#f8f8f8;stroke-linecap:round;-inkscape-stroke:none"
       d="M 246 71.277344 C 202.49525 73.60349 162.97372 91.039922 132.52344 118.38281 L 146.58789 132.44727 C 173.36645 108.73419 207.92448 93.597277 246 91.328125 L 246 71.277344 z M 266 71.277344 L 266 91.328125 C 304.07552 93.597277 338.63355 108.73419 365.41211 132.44727 L 379.47656 118.38281 C 349.02628 91.039922 309.50475 73.60349 266 71.277344 z M 118.38477 132.52539 C 95.293962 158.23324 79.298698 190.41212 73.474609 226 L 93.75 226 C 99.273714 195.84982 112.96281 168.60103 132.46094 146.60156 L 118.38477 132.52539 z M 393.61523 132.52539 L 379.53906 146.60156 C 399.03719 168.60103 412.72629 195.84982 418.25 226 L 438.52539 226 C 432.7013 190.41212 416.70604 158.23324 393.61523 132.52539 z M 246 136.44922 C 220.42825 138.57196 197.17459 148.8308 178.64844 164.50781 L 192.73828 178.59766 C 207.54897 166.48991 225.85242 158.4846 246 156.49609 L 246 136.44922 z M 266 136.44922 L 266 156.49609 C 286.14758 158.4846 304.45103 166.48991 319.26172 178.59766 L 333.35156 164.50781 C 314.82541 148.8308 291.57175 138.57196 266 136.44922 z M 164.50977 178.65039 C 153.01584 192.21385 144.41013 208.28451 139.82812 226 L 160.63086 226 C 164.48059 213.70303 170.64328 202.47047 178.59961 192.74023 L 164.50977 178.65039 z M 347.49023 178.65039 L 333.40039 192.74023 C 341.35672 202.47047 347.51941 213.70303 351.36914 226 L 372.17188 226 C 367.58987 208.28451 358.98416 192.21385 347.49023 178.65039 z M 73.474609 286 C 79.298698 321.58788 95.293962 353.76676 118.38477 379.47461 L 132.46094 365.39844 C 112.96281 343.39897 99.273714 316.15018 93.75 286 L 73.474609 286 z M 139.82812 286 C 144.41013 303.71549 153.01584 319.78615 164.50977 333.34961 L 178.59961 319.25977 C 170.64328 309.52953 164.48059 298.29697 160.63086 286 L 139.82812 286 z M 351.36914 286 C 347.51941 298.29697 341.35672 309.52953 333.40039 319.25977 L 347.49023 333.34961 C 358.98416 319.78615 367.58987 303.71549 372.17188 286 L 351.36914 286 z M 418.25 286 C 412.72629 316.15018 399.03719 343.39897 379.53906 365.39844 L 393.61523 379.47461 C 416.70604 353.76676 432.7013 321.58788 438.52539 286 L 418.25 286 z M 192.73828 333.40234 L 178.64844 347.49219 C 197.17459 363.1692 220.42825 373.42804 246 375.55078 L 246 355.50391 C 225.85242 353.5154 207.54897 345.51009 192.73828 333.40234 z M 319.26172 333.40234 C 304.45103 345.51009 286.14758 353.5154 266 355.50391 L 266 375.55078 C 291.57175 373.42804 314.82541 363.1692 333.35156 347.49219 L 319.26172 333.40234 z M 146.58789 379.55273 L 132.52344 393.61719 C 162.97372 420.96008 202.49525 438.39651 246 440.72266 L 246 420.67188 C 207.92448 418.40272 173.36645 403.26581 146.58789 379.55273 z M 365.41211 379.55273 C 338.63355 403.26581 304.07552 418.40272 266 420.67188 L 266 440.72266 C 309.50475 438.39651 349.02628 420.96008 379.47656 393.61719 L 365.41211 379.55273 z " /><g
       id="path5-1"><path
         id="path22"
         style="color:#000000;fill:#f8f8f8;stroke-linecap:round;-inkscape-stroke:none"
         d="M 256 31.669922 A 10 10 0 0 0 246 41.669922 L 246 56 L 266 56 L 266 41.669922 A 10 10 0 0 0 256 31.669922 z M 246 456 L 246 470.33008 A 10 10 0 0 0 256 480.33008 A 10 10 0 0 0 266 470.33008 L 266 456 L 246 456 z " /></g></g></svg>
